<?xml version="1.0" encoding="UTF-8"?>
<svg id="a" data-name="Capa 1" xmlns="http://www.w3.org/2000/svg" viewBox="0 0 184.8 59">
  <defs>
    <style>
      .b {
        fill: #2b2b2b;
      }
    </style>
  </defs>
  <g>
    <path class="b" d="M19.6,26.2c3.4,0,6.7-2,7.5-2.7v10.5c-.9.5-4.2,2.3-9.2,2.3C7.9,36.4,1.4,29,1.4,18.9S7.9,1.4,17.9,1.4s8.2,1.8,9.1,2.3v10.6c-1.5-1.3-4.6-2.7-7.3-2.7-4.2,0-7.2,2.8-7.2,7.3s2.8,7.3,7.2,7.3Z"/>
    <path class="b" d="M63.5,18.9c0,10.1-7,17.5-16.6,17.5s-16.6-7.4-16.6-17.5S37.2,1.4,46.9,1.4s16.6,7.4,16.6,17.5ZM53.3,18.9c0-4.7-2.9-7.7-6.4-7.7s-6.4,3-6.4,7.7,2.8,7.7,6.4,7.7,6.4-3,6.4-7.7Z"/>
    <path class="b" d="M76.8,22.8c-5.9-1.7-10-4.3-10-10.9s4.5-10.5,12-10.5,8.9,1.3,10.6,2v10c-2-1.1-5-2.1-7.7-2.5-.9,0-1.8-.1-2.6,0-1,.1-2.3.5-2.3,1.7s1.2,1.9,4,2.7c7.2,2,10.6,4.7,10.6,10.9s-5,10.4-13.3,10.4-8.6-1.2-10.6-2.1v-10.3c2.8,1.7,7.5,3.3,10.5,3.3s3.5-.4,3.5-1.8-1.7-1.8-4.5-2.7Z"/>
    <path class="b" d="M106.3,2.3l.3,3.4c.1,1,0,1.7-.2,2.1h.1c1.2-2.8,4.1-5.3,7.5-6,.9-.3,2-.4,2.9-.3,3.7.2,6.7,2.1,8.3,5.9,2.5-3.6,6.1-6,9.9-6,6.4,0,10.5,4.4,10.5,13.4v20.7h-10.9v-19.2c0-2.5-1-4.3-3.1-4.3-4.5,0-5.1,4.4-5.1,9.4v14.1h-11v-19.2c0-2.5-.9-4.3-3-4.3-4.5,0-5.2,4.4-5.2,9.4v14.1h-10.9V2.3h9.9Z"/>
    <path class="b" d="M183.4,18.9c0,10.1-7,17.5-16.6,17.5s-16.6-7.4-16.6-17.5,6.9-17.5,16.6-17.5,16.6,7.4,16.6,17.5ZM173.1,18.9c0-4.7-2.9-7.7-6.4-7.7s-6.4,3-6.4,7.7,2.8,7.7,6.4,7.7,6.4-3,6.4-7.7Z"/>
  </g>
  <g>
    <path class="b" d="M64.2,57.6c-.9,0-1.7-.1-2.5-.4-.7-.3-1.4-.7-1.8-1.3-.5-.6-.7-1.3-.8-2.2h.6c0,.8.3,1.4.8,1.9.4.5,1,.9,1.7,1.1.7.2,1.4.3,2.1.3s1.4-.1,2-.4c.6-.2,1-.6,1.4-1,.3-.4.5-.9.5-1.4s-.1-1.1-.4-1.5-.7-.6-1.3-.8c-.6-.2-1.3-.4-2.2-.6-.7-.1-1.4-.3-1.9-.5-.5-.2-1-.4-1.3-.7s-.6-.6-.8-.9-.3-.7-.3-1.2.2-1.1.5-1.6c.3-.5.8-.8,1.4-1.1.6-.3,1.3-.4,2.2-.4s2.1.3,2.9.9,1.3,1.4,1.4,2.6h-.6c0-.9-.4-1.6-1-2.2-.6-.6-1.5-.8-2.7-.8s-2,.2-2.6.7c-.6.5-.9,1.1-.9,1.9s0,.8.3,1.1.5.6,1,.9c.5.3,1.2.5,2.2.7.9.2,1.7.4,2.4.6.7.2,1.3.5,1.7.9.4.4.6,1,.6,1.8s-.2,1.2-.5,1.7c-.4.5-.9.9-1.5,1.2-.7.3-1.4.4-2.3.4Z"/>
    <path class="b" d="M75.3,57.3c-.6,0-1.1,0-1.6-.3-.4-.2-.8-.5-1-.9-.2-.4-.3-1-.3-1.7v-8.5h-2.3v-.4h2.3v-2.4h.5v2.4h4.4v.4h-4.4v8.5c0,.9.2,1.5.6,1.9.4.4,1,.6,1.9.6h1.6v.4h-1.7Z"/>
    <path class="b" d="M84.6,57.6c-.9,0-1.7-.2-2.5-.5-.7-.3-1.3-.8-1.7-1.5-.4-.7-.6-1.6-.6-2.8v-7.3h.5v7.2c0,1.5.4,2.6,1.1,3.3.7.7,1.8,1.1,3.2,1.1s1.8-.2,2.5-.6,1.3-1,1.7-1.8c.4-.8.6-1.7.6-2.8v-6.4h.5v11.8h-.4l-.2-2.7c-.5,1.1-1.1,1.8-2,2.3s-1.8.7-2.7.7Z"/>
    <path class="b" d="M99.1,57.6c-1.3,0-2.4-.3-3.3-.8s-1.6-1.3-2.1-2.2c-.5-.9-.7-2-.7-3.2s.2-2.3.7-3.2c.5-.9,1.2-1.7,2.1-2.2.9-.5,2-.8,3.3-.8s2.6.4,3.6,1.1c1,.7,1.7,1.7,2.1,3v-8.9h.5v16.9h-.4l-.2-3.7c-.2.8-.6,1.4-1.2,2-.5.6-1.2,1.1-2,1.4-.8.3-1.6.5-2.5.5ZM99.1,57.2c1.1,0,2.1-.2,2.9-.8.8-.5,1.5-1.2,2-2.1s.7-1.8.7-2.9-.2-2.1-.7-3c-.5-.9-1.1-1.5-2-2-.8-.5-1.8-.7-2.9-.7s-2.1.2-2.9.7c-.8.5-1.5,1.1-2,2-.5.9-.7,1.9-.7,3.1s.2,2.2.7,3c.5.9,1.1,1.5,2,2,.8.5,1.8.7,2.9.7Z"/>
    <path class="b" d="M109.5,42c-.1,0-.2,0-.3-.1s-.2-.2-.2-.3,0-.2.2-.3.2-.1.3-.1.3,0,.4.1.1.2.1.3,0,.2-.1.3-.2.1-.4.1ZM109.2,57.3v-11.8h.5v11.8h-.5Z"/>
    <path class="b" d="M119.2,57.6c-1.2,0-2.3-.2-3.2-.7-.9-.5-1.7-1.2-2.2-2.1-.5-.9-.8-2-.8-3.3s.3-2.4.8-3.3c.6-.9,1.3-1.6,2.3-2.1,1-.5,2-.7,3.2-.7s2.3.2,3.2.7c1,.5,1.7,1.2,2.2,2.1.5.9.8,2,.8,3.3s-.3,2.4-.8,3.3c-.6.9-1.3,1.6-2.3,2.1-1,.5-2,.7-3.3.7ZM119.2,57.2c1,0,1.9-.2,2.8-.6s1.6-1.1,2.2-1.9c.6-.9.8-1.9.8-3.2s-.3-2.3-.8-3.2c-.5-.8-1.3-1.5-2.1-1.9-.9-.4-1.8-.6-2.8-.6s-1.9.2-2.8.6c-.9.4-1.6,1.1-2.1,1.9-.5.8-.8,1.9-.8,3.2s.3,2.3.8,3.2c.5.9,1.2,1.5,2.1,1.9s1.8.6,2.8.6Z"/>
  </g>
</svg>